<svg width="32" height="32" viewBox="0 0 32 32" fill="none" xmlns="http://www.w3.org/2000/svg">
<path d="M9.5429 3.42859C8.66501 3.42832 7.81142 3.71686 7.11375 4.24972C6.41608 4.78257 5.91308 5.53015 5.68233 6.37716L2.44918 18.224C1.65718 21.1337 3.84575 24 6.86061 24H25.1395C28.1543 24 30.344 21.1337 29.5509 18.2252L26.3178 6.37716C26.087 5.53034 25.5842 4.7829 24.8868 4.25006C24.1893 3.71723 23.336 3.42857 22.4583 3.42859H9.54175H9.5429ZM7.33718 6.82745C7.46909 6.34355 7.75649 5.91648 8.15509 5.61206C8.55369 5.30764 9.04135 5.14277 9.5429 5.14287H22.4572C22.9587 5.14277 23.4464 5.30764 23.845 5.61206C24.2436 5.91648 24.531 6.34355 24.6629 6.82745L27.8972 18.6766C28.0128 19.1005 28.0292 19.5455 27.9448 19.9768C27.8605 20.4081 27.6779 20.8141 27.411 21.1633C27.1442 21.5125 26.8005 21.7954 26.4065 21.9901C26.0125 22.1848 25.5789 22.2859 25.1395 22.2857H6.86061C6.42125 22.2858 5.98781 22.1845 5.59397 21.9897C5.20013 21.795 4.85651 21.512 4.58983 21.1628C4.32315 20.8137 4.14058 20.4077 4.05633 19.9765C3.97207 19.5453 3.9884 19.1005 4.10404 18.6766L7.33718 6.82745ZM8.85375 25.7143C8.62643 25.7143 8.40841 25.8046 8.24766 25.9654C8.08692 26.1261 7.99661 26.3441 7.99661 26.5714C7.99661 26.7988 8.08692 27.0168 8.24766 27.1775C8.40841 27.3383 8.62643 27.4286 8.85375 27.4286H23.1429C23.3702 27.4286 23.5882 27.3383 23.749 27.1775C23.9097 27.0168 24 26.7988 24 26.5714C24 26.3441 23.9097 26.1261 23.749 25.9654C23.5882 25.8046 23.3702 25.7143 23.1429 25.7143H8.85375Z" fill="#4D4D4D"/>
</svg>
