<svg width="32" height="32" viewBox="0 0 32 32" fill="none" xmlns="http://www.w3.org/2000/svg">
<path d="M9.5429 3.42847C8.66501 3.4282 7.81142 3.71674 7.11375 4.24959C6.41608 4.78245 5.91308 5.53003 5.68233 6.37704L2.44918 18.2239C1.65718 21.1336 3.84575 23.9999 6.86061 23.9999H25.1395C28.1543 23.9999 30.344 21.1336 29.5509 18.225L26.3178 6.37704C26.087 5.53021 25.5842 4.78278 24.8868 4.24994C24.1893 3.7171 23.336 3.42845 22.4583 3.42847H9.54175H9.5429ZM7.33718 6.82732C7.46909 6.34343 7.75649 5.91636 8.15509 5.61194C8.55369 5.30752 9.04135 5.14265 9.5429 5.14275H22.4572C22.9587 5.14265 23.4464 5.30752 23.845 5.61194C24.2436 5.91636 24.531 6.34343 24.6629 6.82732L27.8972 18.6765C28.0128 19.1004 28.0292 19.5454 27.9448 19.9766C27.8605 20.4079 27.6779 20.814 27.411 21.1632C27.1442 21.5123 26.8005 21.7953 26.4065 21.99C26.0125 22.1846 25.5789 22.2858 25.1395 22.2856H6.86061C6.42125 22.2856 5.98781 22.1843 5.59397 21.9896C5.20013 21.7948 4.85651 21.5119 4.58983 21.1627C4.32315 20.8135 4.14058 20.4076 4.05633 19.9764C3.97207 19.5452 3.9884 19.1003 4.10404 18.6765L7.33718 6.82732ZM8.85375 25.7142C8.62643 25.7142 8.40841 25.8045 8.24766 25.9652C8.08692 26.126 7.99661 26.344 7.99661 26.5713C7.99661 26.7987 8.08692 27.0167 8.24766 27.1774C8.40841 27.3382 8.62643 27.4285 8.85375 27.4285H23.1429C23.3702 27.4285 23.5882 27.3382 23.749 27.1774C23.9097 27.0167 24 26.7987 24 26.5713C24 26.344 23.9097 26.126 23.749 25.9652C23.5882 25.8045 23.3702 25.7142 23.1429 25.7142H8.85375Z" fill="#5936A2"/>
</svg>
