<svg width="24" height="24" viewBox="0 0 24 24" fill="none" xmlns="http://www.w3.org/2000/svg">
<path d="M10.2072 4.08119C10.7527 3.76789 11.3708 3.60303 12 3.60303C12.6291 3.60303 13.2472 3.76789 13.7928 4.08119L22.4988 9.08039C22.5902 9.13297 22.6662 9.20875 22.7191 9.30008C22.7719 9.39141 22.7998 9.49507 22.7998 9.60059C22.7998 9.70611 22.7719 9.80976 22.7191 9.9011C22.6662 9.99243 22.5902 10.0682 22.4988 10.1208L19.1999 12.0144V17.4C19.2001 17.4788 19.1847 17.5569 19.1546 17.6298C19.1246 17.7027 19.0804 17.769 19.0247 17.8248L19.0224 17.826L19.02 17.8296L19.0116 17.8368L18.9839 17.8632L18.8879 17.952C18.7707 18.0549 18.6502 18.1542 18.5268 18.2496C18.0957 18.5805 17.6377 18.8748 17.1576 19.1292C15.5694 19.9716 13.7977 20.4086 12 20.4012C10.2022 20.4086 8.4305 19.9716 6.84235 19.1292C6.36258 18.8747 5.90498 18.5805 5.47435 18.2496C5.3161 18.1274 5.16316 17.9985 5.01595 17.8632C4.94998 17.805 4.89675 17.7339 4.85958 17.6541C4.82241 17.5744 4.80211 17.4879 4.79995 17.4V12.0144L2.39995 10.6368V16.2C2.39995 16.3591 2.33674 16.5117 2.22422 16.6243C2.11169 16.7368 1.95908 16.8 1.79995 16.8C1.64082 16.8 1.48821 16.7368 1.37569 16.6243C1.26317 16.5117 1.19995 16.3591 1.19995 16.2V9.59999C1.19987 9.49226 1.2288 9.38649 1.2837 9.2938C1.3386 9.2011 1.41744 9.1249 1.51195 9.07319L10.2072 4.08119ZM13.7928 15.1188C13.2472 15.4321 12.6291 15.597 12 15.597C11.3708 15.597 10.7527 15.4321 10.2072 15.1188L5.99995 12.7032V17.1324C6.4369 17.491 6.90842 17.8054 7.40755 18.0708C8.46355 18.6348 10.0176 19.2 12 19.2C13.6003 19.2081 15.1779 18.8206 16.5924 18.072C17.0916 17.8059 17.5631 17.4907 18 17.1312V12.7032L13.7928 15.1176V15.1188ZM13.1952 5.12279C12.8314 4.91392 12.4194 4.80401 12 4.80401C11.5805 4.80401 11.1685 4.91392 10.8048 5.12279L3.00475 9.59999L10.8048 14.0784C11.1685 14.2873 11.5805 14.3972 12 14.3972C12.4194 14.3972 12.8314 14.2873 13.1952 14.0784L20.9951 9.59999L13.1952 5.12279Z" fill="#363636"/>
</svg>
