<svg width="24" height="24" viewBox="0 0 24 24" fill="none" xmlns="http://www.w3.org/2000/svg">
<path d="M7.5 22.5H16.5C17.0967 22.5 17.669 22.2629 18.091 21.841C18.5129 21.419 18.75 20.8467 18.75 20.25L18.75 3.75C18.75 3.15326 18.5129 2.58097 18.091 2.15901C17.669 1.73705 17.0967 1.5 16.5 1.5H7.5C6.90326 1.5 6.33097 1.73705 5.90901 2.15901C5.48705 2.58097 5.25 3.15326 5.25 3.75L5.25 20.25C5.25 20.8467 5.48705 21.419 5.90901 21.841C6.33097 22.2629 6.90326 22.5 7.5 22.5ZM6.75 3.75C6.75 3.55109 6.82902 3.36032 6.96967 3.21967C7.11032 3.07902 7.30109 3 7.5 3H16.5C16.6989 3 16.8897 3.07902 17.0303 3.21967C17.171 3.36032 17.25 3.55109 17.25 3.75L17.25 20.25C17.25 20.4489 17.171 20.6397 17.0303 20.7803C16.8897 20.921 16.6989 21 16.5 21H7.5C7.30109 21 7.11032 20.921 6.96967 20.7803C6.82902 20.6397 6.75 20.4489 6.75 20.25L6.75 3.75ZM8.25 18.75C8.25 18.5511 8.32902 18.3603 8.46967 18.2197C8.61032 18.079 8.80109 18 9 18H15C15.1989 18 15.3897 18.079 15.5303 18.2197C15.671 18.3603 15.75 18.5511 15.75 18.75C15.75 18.9489 15.671 19.1397 15.5303 19.2803C15.3897 19.421 15.1989 19.5 15 19.5H9C8.80109 19.5 8.61032 19.421 8.46967 19.2803C8.32902 19.1397 8.25 18.9489 8.25 18.75Z" fill="#363636"/>
</svg>
