<svg width="32" height="32" viewBox="0 0 32 32" fill="none" xmlns="http://www.w3.org/2000/svg">
<path d="M25.2381 17.4286H18.0952V24.5714C18.0952 24.9503 17.9447 25.3137 17.6768 25.5816C17.4089 25.8495 17.0455 26 16.6666 26C16.2877 26 15.9244 25.8495 15.6565 25.5816C15.3886 25.3137 15.2381 24.9503 15.2381 24.5714V17.4286H8.0952C7.71632 17.4286 7.35295 17.2781 7.08505 17.0102C6.81714 16.7422 6.66663 16.3789 6.66663 16C6.66663 15.6211 6.81714 15.2578 7.08505 14.9898C7.35295 14.7219 7.71632 14.5714 8.0952 14.5714H15.2381V7.42857C15.2381 7.04969 15.3886 6.68633 15.6565 6.41842C15.9244 6.15051 16.2877 6 16.6666 6C17.0455 6 17.4089 6.15051 17.6768 6.41842C17.9447 6.68633 18.0952 7.04969 18.0952 7.42857V14.5714H25.2381C25.6169 14.5714 25.9803 14.7219 26.2482 14.9898C26.5161 15.2578 26.6666 15.6211 26.6666 16C26.6666 16.3789 26.5161 16.7422 26.2482 17.0102C25.9803 17.2781 25.6169 17.4286 25.2381 17.4286Z" fill="#3F3F3F"/>
</svg>
