<svg width="32" height="32" viewBox="0 0 32 32" fill="none" xmlns="http://www.w3.org/2000/svg">
<path d="M15.9999 18.2857C19.1558 18.2857 21.7142 15.7274 21.7142 12.5715C21.7142 9.41555 19.1558 6.85718 15.9999 6.85718C12.844 6.85718 10.2856 9.41555 10.2856 12.5715C10.2856 15.7274 12.844 18.2857 15.9999 18.2857Z" stroke="#4D4D4D" stroke-width="1.5" stroke-linecap="round" stroke-linejoin="round"/>
<path d="M23.5657 24.5714C21.4771 22.7267 18.7865 21.7086 16 21.7086C13.2134 21.7086 10.5228 22.7267 8.43425 24.5714M30.8571 24V28.5714C30.8571 29.1776 30.6163 29.759 30.1876 30.1876C29.759 30.6163 29.1776 30.8571 28.5714 30.8571H24M24 1.14282H28.5714C29.1776 1.14282 29.759 1.38364 30.1876 1.81229C30.6163 2.24095 30.8571 2.82233 30.8571 3.42854V7.99996M1.14282 7.99996V3.42854C1.14282 2.82233 1.38364 2.24095 1.81229 1.81229C2.24095 1.38364 2.82233 1.14282 3.42854 1.14282H7.99996M7.99996 30.8571H3.42854C2.82233 30.8571 2.24095 30.6163 1.81229 30.1876C1.38364 29.759 1.14282 29.1776 1.14282 28.5714V24" stroke="#4D4D4D" stroke-width="1.5" stroke-linecap="round" stroke-linejoin="round"/>
</svg>
